<svg width="19" height="13" viewBox="0 0 19 13" fill="none" xmlns="http://www.w3.org/2000/svg">
<path fill-rule="evenodd" clip-rule="evenodd" d="M1.1875 0.791667C0.969792 0.791667 0.791667 0.969792 0.791667 1.1875V11.4792C0.791667 11.6969 0.969792 11.875 1.1875 11.875H17.8125C18.0302 11.875 18.2083 11.6969 18.2083 11.4792V1.1875C18.2083 0.969792 18.0302 0.791667 17.8125 0.791667H1.1875ZM17.8125 12.6667H1.1875C0.532792 12.6667 0 12.1339 0 11.4792V1.1875C0 0.532792 0.532792 0 1.1875 0H17.8125C18.4672 0 19 0.532792 19 1.1875V11.4792C19 12.1339 18.4672 12.6667 17.8125 12.6667Z" fill="#585858"/>
<path fill-rule="evenodd" clip-rule="evenodd" d="M9.49995 7.12611C9.09145 7.12611 8.68374 6.99945 8.33541 6.74611L0.365698 0.982781C0.188365 0.854531 0.14799 0.607531 0.277031 0.430197C0.405281 0.253656 0.65149 0.214864 0.829615 0.341531L8.80011 6.10486C9.21891 6.40966 9.78099 6.40886 10.199 6.10566L18.1727 0.341531C18.35 0.214072 18.597 0.252864 18.7252 0.430197C18.8535 0.607531 18.8139 0.854531 18.6366 0.982781L10.6637 6.74691C10.3154 6.99945 9.90845 7.12611 9.49995 7.12611Z" fill="#585858"/>
<path fill-rule="evenodd" clip-rule="evenodd" d="M0.607571 12.4144C0.485654 12.4144 0.364529 12.3582 0.287738 12.2513C0.159488 12.074 0.197488 11.827 0.374821 11.6987L8.20757 6.01298C8.38332 5.88552 8.6319 5.92273 8.76015 6.10006C8.8884 6.2774 8.84961 6.52519 8.67307 6.65344L0.840321 12.3384C0.769863 12.3899 0.688321 12.4144 0.607571 12.4144Z" fill="#585858"/>
<path fill-rule="evenodd" clip-rule="evenodd" d="M18.3909 12.4144C18.3094 12.4144 18.2286 12.3899 18.1582 12.3384L10.327 6.65344C10.1504 6.52519 10.1117 6.2774 10.2399 6.10006C10.3682 5.92273 10.6167 5.88552 10.7925 6.01298L18.6237 11.6987C18.801 11.827 18.839 12.074 18.7107 12.2513C18.6339 12.3582 18.5128 12.4144 18.3909 12.4144Z" fill="#585858"/>
</svg>
