<svg width="13" height="13" viewBox="0 0 13 13" fill="none" xmlns="http://www.w3.org/2000/svg">
<path fill-rule="evenodd" clip-rule="evenodd" d="M6.39817 0C2.86488 0 0 2.86488 0 6.39817C0 9.93146 2.86488 12.7969 6.39817 12.7969C9.93146 12.7969 12.7969 9.93146 12.7969 6.39817C12.7969 2.86488 9.93146 0 6.39817 0ZM7.73013 9.91629C7.40079 10.0463 7.13863 10.1449 6.942 10.2131C6.74592 10.2814 6.51788 10.3155 6.25842 10.3155C5.85975 10.3155 5.54938 10.218 5.32838 10.0235C5.10738 9.82908 4.99742 9.58263 4.99742 9.28308C4.99742 9.16663 5.00554 9.04746 5.02179 8.92612C5.03858 8.80479 5.06512 8.66829 5.10142 8.515L5.51363 7.059C5.54992 6.91925 5.58133 6.78654 5.60625 6.66304C5.63117 6.53846 5.64308 6.42417 5.64308 6.32017C5.64308 6.13492 5.60463 6.00492 5.52825 5.93179C5.45079 5.85867 5.30508 5.82292 5.08788 5.82292C4.98171 5.82292 4.87229 5.83862 4.76017 5.87167C4.64913 5.90579 4.55271 5.93667 4.47363 5.967L4.5825 5.5185C4.85225 5.40854 5.11063 5.31429 5.35708 5.23629C5.60354 5.15721 5.83646 5.11821 6.05583 5.11821C6.45179 5.11821 6.75729 5.21462 6.97233 5.40529C7.18629 5.5965 7.29408 5.84513 7.29408 6.15063C7.29408 6.214 7.2865 6.32558 7.27188 6.48483C7.25725 6.64463 7.22963 6.79033 7.18954 6.92413L6.7795 8.37579C6.74592 8.49225 6.71613 8.6255 6.68904 8.77446C6.6625 8.92342 6.6495 9.03717 6.6495 9.11354C6.6495 9.30638 6.69229 9.438 6.77896 9.50788C6.86454 9.57775 7.01458 9.61296 7.22692 9.61296C7.32713 9.61296 7.43925 9.59508 7.566 9.56042C7.69167 9.52575 7.78267 9.49487 7.84008 9.46833L7.73013 9.91629ZM6.96692 4.29054C7.23612 4.29054 7.46633 4.20171 7.65754 4.02404C7.84875 3.84637 7.94463 3.63079 7.94463 3.37783C7.94463 3.12596 7.84875 2.90929 7.65754 2.73C7.46688 2.55017 7.23612 2.46079 6.96692 2.46079C6.69825 2.46079 6.46642 2.55017 6.27358 2.73C6.08238 2.90929 5.98488 3.12596 5.98488 3.37783C5.98488 3.63025 6.08183 3.84637 6.27358 4.02404C6.46642 4.20171 6.69825 4.29054 6.96692 4.29054Z" fill="#585858"/>
</svg>
