<svg width="11" height="9" viewBox="0 0 11 9" fill="none" xmlns="http://www.w3.org/2000/svg">
<path fill-rule="evenodd" clip-rule="evenodd" d="M5.26021 7.65794C4.96174 7.65794 4.73786 7.41374 4.73786 7.13559C4.73786 6.85067 4.96172 6.61326 5.26021 6.61326C5.53834 6.61326 5.77578 6.85067 5.77578 7.13559C5.77578 7.41374 5.53834 7.65794 5.26021 7.65794ZM5.25342 2.65832C5.51799 2.65832 5.74188 2.80758 5.74188 3.07211C5.74188 3.87938 5.64689 5.0394 5.64689 5.84665C5.64689 6.05696 5.41624 6.14514 5.25342 6.14514C5.03637 6.14514 4.85319 6.05696 4.85319 5.84665C4.85319 5.0394 4.75824 3.87938 4.75824 3.07211C4.75824 2.80758 4.9753 2.65832 5.25342 2.65832ZM10.4076 7.96652L5.80092 0.32677C5.6845 0.133688 5.47546 0.015625 5.24998 0.015625C5.02452 0.015625 4.81548 0.133668 4.69906 0.32677L0.0924072 7.96652C-0.0273995 8.16523 -0.0309473 8.41306 0.0831582 8.61508C0.197264 8.81715 0.411324 8.94208 0.643329 8.94208H9.85665C10.0887 8.94208 10.3027 8.81713 10.4168 8.61508C10.5309 8.41304 10.5274 8.16523 10.4076 7.96652Z" fill="#94070A"/>
</svg>
