<svg xmlns="http://www.w3.org/2000/svg" viewBox="0 0 99.64 22.19">
    <g id="Header" fill="#94070A">
        <polygon class="c-header__logo-path c-header__logo-path--8" points="10.92,17.84 14.17,19.46 17.25,19.54 14.54,18.07"></polygon>
        <polygon class="c-header__logo-path c-header__logo-path--7" points="10.92,17.55 16.9,16.64 21.18,13.81 16.09,14.39"></polygon>
        <polygon class="c-header__logo-path c-header__logo-path--6" points="16.4,12 18.75,6.04 13.95,10.28 10.92,17.22"></polygon>
        <polygon class="c-header__logo-path c-header__logo-path--5" points="12.46,9.28 10.59,0 8.72,9.28 10.59,17.07"></polygon>
        <polygon class="c-header__logo-path c-header__logo-path--4" points="10.26,17.22 7.23,10.28 2.43,6.04 4.78,12"></polygon>
        <polygon class="c-header__logo-path c-header__logo-path--3" points="10.26,17.55 5.09,14.39 0,13.81 4.28,16.64"></polygon>
        <polygon class="c-header__logo-path c-header__logo-path--2" points="6.64,18.07 3.93,19.54 7.01,19.46 10.26,17.84"></polygon>
        <polygon class="c-header__logo-path c-header__logo-path--1" points="10.18,20.12 10.59,21.83 11,20.12 10.59,18.08"></polygon>
        <path class="st0" d="M89.77,5.14h3.69v2c0.66-1.28,1.5-2.31,2.97-2.31c2.12,0,3.22,1.81,3.22,4.37v12.68h-3.69V10.04 c0-1.22-0.47-1.91-1.22-1.91c-0.75,0-1.28,0.69-1.28,1.91v11.84h-3.69V5.14z M53.11,14.26v-1.5c0-5.97,1.56-7.93,3.56-7.93 c1.63,0,2.38,1.34,2.94,2.34V0.01h3.69v21.87h-3.69v-2.09c-0.53,1-1.31,2.41-2.94,2.41C54.67,22.19,53.11,20.29,53.11,14.26z M59.64,14.07v-1.12c0-2.97-0.53-4.59-1.47-4.59c-0.94,0-1.37,1.63-1.37,4.59v1.12c0,3,0.44,4.6,1.37,4.6 C59.11,18.67,59.64,17.07,59.64,14.07z M27.64,0.01h3.78l2.69,8l2.69-8h3.78v21.87h-3.65V8.67l-2.78,8.28h-0.06l-2.78-8.28v13.22 h-3.65V0.01z M45.5,14.72c0,1.45,0.21,4.17,1.65,4.18c0.87,0.01,1.03-1.24,1.28-2.59l3.65,0.01c-0.22,1.91-1.44,5.86-5.02,5.86 c-3.85,0-5.59-4.11-5.59-8.68c0-4.67,1.84-8.61,5.54-8.61c3.87,0,5.22,4.41,5.22,8.72v1.12H45.5z M48.5,11.57 c-0.15-1.35-0.12-3.32-1.51-3.32c-1.14,0-1.43,2.21-1.49,3.32H48.5z M64.24,0.01h3.78l2.69,8l2.69-8h3.78v21.87h-3.65V8.67 l-2.78,8.28h-0.06L67.9,8.67v13.22h-3.65V0.01z M82.1,14.72c0,1.45,0.21,4.17,1.66,4.18c0.87,0.01,1.03-1.24,1.28-2.59l3.65,0.01 c-0.22,1.91-1.44,5.86-5.02,5.86c-3.85,0-5.59-4.11-5.59-8.68c0-4.67,1.84-8.61,5.54-8.61c3.87,0,5.21,4.41,5.21,8.72v1.12H82.1z M85.1,11.57c-0.15-1.35-0.12-3.32-1.51-3.32c-1.14,0-1.43,2.21-1.49,3.32H85.1z M98.41,0.22c0.22,0.09,0.41,0.22,0.56,0.38 c0.16,0.16,0.28,0.35,0.38,0.57c0.09,0.22,0.14,0.45,0.14,0.7c0,0.25-0.05,0.49-0.14,0.7c-0.09,0.21-0.22,0.4-0.38,0.56 c-0.16,0.16-0.35,0.28-0.56,0.37c-0.22,0.09-0.45,0.14-0.7,0.14c-0.25,0-0.49-0.05-0.7-0.14c-0.22-0.09-0.41-0.22-0.56-0.37 c-0.16-0.16-0.28-0.35-0.37-0.56c-0.09-0.22-0.14-0.45-0.14-0.7c0-0.25,0.05-0.48,0.14-0.7c0.09-0.22,0.22-0.41,0.37-0.57 c0.16-0.16,0.35-0.29,0.56-0.38c0.22-0.09,0.45-0.14,0.7-0.14C97.96,0.09,98.2,0.13,98.41,0.22z M97.11,0.46 c-0.18,0.08-0.34,0.19-0.47,0.32c-0.13,0.14-0.24,0.3-0.31,0.48c-0.07,0.19-0.11,0.38-0.11,0.6c0,0.21,0.04,0.41,0.11,0.6 c0.07,0.19,0.18,0.35,0.31,0.48c0.13,0.14,0.29,0.25,0.47,0.33c0.18,0.08,0.38,0.12,0.6,0.12c0.21,0,0.41-0.04,0.6-0.12 c0.18-0.08,0.34-0.19,0.48-0.33c0.13-0.14,0.24-0.3,0.32-0.48c0.08-0.18,0.11-0.38,0.11-0.6c0-0.21-0.04-0.41-0.11-0.6 c-0.08-0.18-0.18-0.35-0.32-0.48c-0.13-0.14-0.29-0.25-0.48-0.32s-0.38-0.12-0.6-0.12C97.49,0.34,97.29,0.38,97.11,0.46z M97.06,2.89V0.84h0.79c0.23,0,0.4,0.05,0.51,0.15c0.11,0.1,0.16,0.24,0.16,0.42c0,0.09-0.01,0.17-0.04,0.23 c-0.03,0.07-0.06,0.12-0.11,0.17c-0.05,0.05-0.1,0.08-0.17,0.11c-0.06,0.03-0.13,0.05-0.2,0.06l0.61,0.91h-0.3l-0.58-0.91h-0.43 v0.91H97.06z M97.88,1.76c0.07,0,0.14-0.02,0.2-0.04c0.06-0.02,0.1-0.06,0.14-0.11c0.04-0.05,0.05-0.12,0.05-0.2 c0-0.07-0.01-0.13-0.04-0.18c-0.03-0.04-0.06-0.08-0.11-0.11c-0.05-0.03-0.1-0.05-0.15-0.05c-0.06-0.01-0.12-0.01-0.18-0.01h-0.46 v0.71h0.33C97.73,1.77,97.8,1.76,97.88,1.76z">
        </path>
    </g>
</svg>
