
<svg width="19px" height="26px" viewBox="0 0 19 26" version="1.1" xmlns="http://www.w3.org/2000/svg" xmlns:xlink="http://www.w3.org/1999/xlink">
    <g id="Desktop" stroke="none" stroke-width="1" fill="none" fill-rule="evenodd">
        <g id="Click-Pin" transform="translate(-1025.000000, -56.000000)" fill="#94070A" stroke="#94070A">
            <g id="Modal-Popup" transform="translate(888.000000, 45.000000)">
                <g id="Group-10" transform="translate(146.500000, 24.000000) rotate(-90.000000) translate(-146.500000, -24.000000) translate(134.500000, 15.500000)">
                    <path d="M23.5,9.00025 L0.5,9.00025 C0.224,9.00025 0,8.77625 0,8.50025 C0,8.22425 0.224,8.00025 0.5,8.00025 L23.5,8.00025 C23.776,8.00025 24,8.22425 24,8.50025 C24,8.77625 23.776,9.00025 23.5,9.00025" id="Fill-6978"></path>
                    <path d="M23.5,9.00025 C23.372,9.00025 23.244,8.95125 23.147,8.85425 L15.147,0.85425 C14.951,0.65825 14.951,0.34225 15.147,0.14625 C15.342,-0.04875 15.658,-0.04875 15.854,0.14625 L23.854,8.14625 C24.049,8.34225 24.049,8.65825 23.854,8.85425 C23.756,8.95125 23.628,9.00025 23.5,9.00025" id="Fill-6979"></path>
                    <path d="M15.5,17.00025 C15.372,17.00025 15.244,16.95125 15.147,16.85425 C14.951,16.65825 14.951,16.34225 15.147,16.14625 L23.147,8.14625 C23.342,7.95125 23.658,7.95125 23.854,8.14625 C24.049,8.34225 24.049,8.65825 23.854,8.85425 L15.854,16.85425 C15.756,16.95125 15.628,17.00025 15.5,17.00025" id="Fill-6980"></path>
                </g>
            </g>
        </g>
    </g>
</svg>
