<svg width="30" height="30" viewBox="0 0 30 30" fill="none" xmlns="http://www.w3.org/2000/svg">
<path fill-rule="evenodd" clip-rule="evenodd" d="M6.66667 18.0445L5.61958 21.9695L1.79249 22.0508C0.648747 19.9207 0 17.4836 0 14.8937C0 12.3894 0.606563 10.0277 1.68174 7.94824H1.68256L5.08974 8.57547L6.5823 11.9761C6.26991 12.8906 6.09964 13.8723 6.09964 14.8937C6.09976 16.0024 6.29976 17.0646 6.66667 18.0445Z" fill="#FBBB00"/>
<path fill-rule="evenodd" clip-rule="evenodd" d="M29.7388 12.0518C29.9104 12.9664 29.9999 13.9109 29.9999 14.8763C29.9999 15.9588 29.8874 17.0147 29.6731 18.0332C28.9457 21.4991 27.0448 24.5255 24.4116 26.6671L24.4108 26.6663L20.1468 26.4462L19.5434 22.6347C21.2906 21.5979 22.6561 19.9755 23.3754 18.0332H15.3845V12.0518H23.492H29.7388Z" fill="#518EF8"/>
<path fill-rule="evenodd" clip-rule="evenodd" d="M24.3582 26.7177L24.359 26.7185C21.7929 28.7716 18.5331 29.9999 14.9845 29.9999C9.28201 29.9999 4.3241 26.8275 1.79492 22.1588L6.64755 18.2051C7.91211 21.5643 11.1678 23.9555 14.9845 23.9555C16.6251 23.9555 18.1621 23.5141 19.4809 22.7435L24.3582 26.7177Z" fill="#28B446"/>
<path fill-rule="evenodd" clip-rule="evenodd" d="M24.6154 3.43876L19.7724 7.4003C18.4097 6.54925 16.7988 6.05762 15.0731 6.05762C11.1763 6.05762 7.86515 8.56404 6.6659 12.0513L1.79574 8.06756H1.79492C4.283 3.27463 9.29524 0 15.0731 0C18.7004 0 22.0263 1.29099 24.6154 3.43876Z" fill="#F14336"/>
</svg>
