<svg width="23px" height="23px" viewBox="0 0 23 23" version="1.1" xmlns="http://www.w3.org/2000/svg" xmlns:xlink="http://www.w3.org/1999/xlink">
    <g id="Symbols" stroke="none" stroke-width="1" fill="none" fill-rule="evenodd">
        <g id="icon_current_location">
            <path d="M11.5,8 C9.57,8 8,9.57 8,11.5 C8,13.43 9.57,15 11.5,15 C13.43,15 15,13.43 15,11.5 C15,9.57 13.43,8 11.5,8 L11.5,8 Z M11.5,16 C9.019,16 7,13.98 7,11.5 C7,9.02 9.019,7 11.5,7 C13.981,7 16,9.02 16,11.5 C16,13.98 13.981,16 11.5,16 L11.5,16 Z" id="Fill-2065" fill="#000000"></path>
            <path d="M11.5,3 C6.813,3 3,6.81 3,11.5 C3,16.19 6.813,20 11.5,20 C16.187,20 20,16.19 20,11.5 C20,6.81 16.187,3 11.5,3 L11.5,3 Z M11.5,21 C6.262,21 2,16.74 2,11.5 C2,6.26 6.262,2 11.5,2 C16.738,2 21,6.26 21,11.5 C21,16.74 16.738,21 11.5,21 L11.5,21 Z" id="Fill-2066" fill="#222222"></path>
            <path d="M11.5,3 C11.224,3 11,2.78 11,2.5 L11,0.5 C11,0.22 11.224,0 11.5,0 C11.776,0 12,0.22 12,0.5 L12,2.5 C12,2.78 11.776,3 11.5,3" id="Fill-2067" fill="#222222"></path>
            <path d="M22.5,12 L20.5,12 C20.224,12 20,11.78 20,11.5 C20,11.22 20.224,11 20.5,11 L22.5,11 C22.776,11 23,11.22 23,11.5 C23,11.78 22.776,12 22.5,12" id="Fill-2068" fill="#222222"></path>
            <path d="M2.5,12 L0.5,12 C0.224,12 0,11.78 0,11.5 C0,11.22 0.224,11 0.5,11 L2.5,11 C2.776,11 3,11.22 3,11.5 C3,11.78 2.776,12 2.5,12" id="Fill-2069" fill="#222222"></path>
            <path d="M11.5,23 C11.224,23 11,22.78 11,22.5 L11,20.5 C11,20.22 11.224,20 11.5,20 C11.776,20 12,20.22 12,20.5 L12,22.5 C12,22.78 11.776,23 11.5,23" id="Fill-2070" fill="#222222"></path>
        </g>
    </g>
</svg>
